<svg width="28" height="28" viewBox="0 0 28 28" fill="none" xmlns="http://www.w3.org/2000/svg">
<path d="M3.68414 24.3158C5.36827 26 8.07884 26 13.5 26C18.9211 26 21.6318 26 23.3158 24.3158C25 22.6318 25 19.9211 25 14.5C25 9.07884 25 6.36827 23.3158 4.68414C21.6318 3 18.9211 3 13.5 3C8.07884 3 5.36827 3 3.68414 4.68414C2 6.36827 2 9.07884 2 14.5C2 19.9211 2 22.6318 3.68414 24.3158Z" stroke="#9A9A9A" stroke-opacity="0.5" stroke-width="2"/>
<path d="M21 10.3636H16.3333M21 17.4546H16.3333M21 21H16.3333M11.6667 10.3636H9.33333M9.33333 10.3636H7M9.33333 10.3636V8M9.33333 10.3636V12.7273M11.0833 17.4546L9.33334 19.2273M9.33334 19.2273L7.58334 21M9.33334 19.2273L7.58333 17.4546M9.33334 19.2273L11.0833 21" stroke="#9A9A9A" stroke-opacity="0.5" stroke-width="2" stroke-linecap="round"/>
</svg>
