<svg width="28" height="28" viewBox="0 0 28 28" fill="none" xmlns="http://www.w3.org/2000/svg">
<path d="M2.33331 14.238C2.33331 11.5682 2.33331 10.2333 2.93905 9.12669C3.54478 8.02007 4.65142 7.33326 6.86468 5.95965L9.19801 4.51151C11.5376 3.0595 12.7074 2.3335 14 2.3335C15.2925 2.3335 16.4623 3.0595 18.802 4.51151L21.1353 5.95964C23.3486 7.33326 24.4552 8.02007 25.0609 9.12669C25.6666 10.2333 25.6666 11.5682 25.6666 14.238V16.0127C25.6666 20.5636 25.6666 22.8392 24.2998 24.2529C22.933 25.6668 20.733 25.6668 16.3333 25.6668H11.6666C7.26687 25.6668 5.06699 25.6668 3.70014 24.2529C2.33331 22.8392 2.33331 20.5636 2.33331 16.0127V14.238Z" stroke="#9A9A9A" stroke-opacity="0.5" stroke-width="2"/>
<path d="M10.5 18.6665C11.4921 19.4019 12.6987 19.8332 14 19.8332C15.3013 19.8332 16.5079 19.4019 17.5 18.6665" stroke="#9A9A9A" stroke-opacity="0.5" stroke-width="2" stroke-linecap="round"/>
</svg>
