<svg width="28" height="28" viewBox="0 0 28 28" fill="none" xmlns="http://www.w3.org/2000/svg">
<path fill-rule="evenodd" clip-rule="evenodd" d="M14 26C8.34314 26 5.51472 26 3.75736 24.2426C2 22.4853 2 19.6568 2 14C2 8.34314 2 5.51472 3.75736 3.75736C5.51472 2 8.34314 2 14 2C19.6568 2 22.4853 2 24.2426 3.75736C26 5.51472 26 8.34314 26 14C26 19.6568 26 22.4853 24.2426 24.2426C22.4853 26 19.6568 26 14 26ZM10.1 7.4C10.1 6.90295 9.69707 6.5 9.20002 6.5C8.70297 6.5 8.30002 6.90295 8.30002 7.4V8.90002H6.80002C6.30297 8.90002 5.90002 9.30296 5.90002 9.80002C5.90002 10.2971 6.30297 10.7 6.80002 10.7H8.30002V12.2C8.30002 12.697 8.70297 13.1 9.20002 13.1C9.69707 13.1 10.1 12.697 10.1 12.2V10.7H11.6C12.0971 10.7 12.5 10.2971 12.5 9.80002C12.5 9.30296 12.0971 8.90002 11.6 8.90002H10.1V7.4ZM16.4 8.9C15.903 8.9 15.5 9.30295 15.5 9.8C15.5 10.2971 15.903 10.7 16.4 10.7H21.2C21.6971 10.7 22.1 10.2971 22.1 9.8C22.1 9.30295 21.6971 8.9 21.2 8.9H16.4ZM16.4 16.1C15.903 16.1 15.5 16.503 15.5 17C15.5 17.497 15.903 17.9 16.4 17.9H21.2C21.6971 17.9 22.1 17.497 22.1 17C22.1 16.503 21.6971 16.1 21.2 16.1H16.4ZM8.03642 16.3636C7.68495 16.0122 7.11509 16.0122 6.76362 16.3636C6.41216 16.7151 6.41216 17.285 6.76362 17.6365L7.92724 18.8L6.76364 19.9636C6.41217 20.3151 6.41217 20.885 6.76364 21.2365C7.11512 21.5878 7.68496 21.5878 8.03643 21.2365L9.20003 20.0728L10.3636 21.2364C10.7151 21.5878 11.2849 21.5878 11.6364 21.2364C11.9879 20.8849 11.9879 20.3151 11.6364 19.9636L10.4728 18.8L11.6364 17.6365C11.9879 17.285 11.9879 16.7151 11.6364 16.3636C11.2849 16.0122 10.7151 16.0122 10.3636 16.3636L9.20003 17.5273L8.03642 16.3636ZM16.4 19.7C15.903 19.7 15.5 20.103 15.5 20.6C15.5 21.097 15.903 21.5 16.4 21.5H21.2C21.6971 21.5 22.1 21.097 22.1 20.6C22.1 20.103 21.6971 19.7 21.2 19.7H16.4Z" fill="#007AFF"/>
</svg>
