<svg width="28" height="28" viewBox="0 0 28 28" fill="none" xmlns="http://www.w3.org/2000/svg">
<path fill-rule="evenodd" clip-rule="evenodd" d="M14 25.6668C20.4432 25.6668 25.6666 20.4434 25.6666 14.0002C25.6666 7.55684 20.4432 2.3335 14 2.3335C7.55665 2.3335 2.33331 7.55684 2.33331 14.0002C2.33331 20.4434 7.55665 25.6668 14 25.6668ZM14.875 10.5002C14.875 10.0169 14.4832 9.62516 14 9.62516C13.5167 9.62516 13.125 10.0169 13.125 10.5002V13.1252H10.5C10.0167 13.1252 9.62498 13.5169 9.62498 14.0002C9.62498 14.4834 10.0167 14.8752 10.5 14.8752H13.125V17.5002C13.125 17.9834 13.5167 18.3752 14 18.3752C14.4832 18.3752 14.875 17.9834 14.875 17.5002V14.8752H17.5C17.9832 14.8752 18.375 14.4834 18.375 14.0002C18.375 13.5169 17.9832 13.1252 17.5 13.1252H14.875V10.5002Z" fill="#007AFF"/>
</svg>
