<svg width="28" height="28" viewBox="0 0 28 28" fill="none" xmlns="http://www.w3.org/2000/svg">
<path fill-rule="evenodd" clip-rule="evenodd" d="M2.93905 9.12669C2.33331 10.2333 2.33331 11.5682 2.33331 14.238V16.0127C2.33331 20.5636 2.33331 22.8392 3.70014 24.2529C5.06699 25.6668 7.26687 25.6668 11.6666 25.6668H16.3333C20.733 25.6668 22.933 25.6668 24.2998 24.2529C25.6666 22.8392 25.6666 20.5636 25.6666 16.0127V14.238V14.238C25.6666 11.5682 25.6666 10.2333 25.0609 9.12669C24.4552 8.02007 23.3486 7.33326 21.1353 5.95964L18.802 4.51151C16.4623 3.0595 15.2925 2.3335 14 2.3335C12.7074 2.3335 11.5376 3.0595 9.19801 4.51151L6.86468 5.95965C4.65142 7.33326 3.54478 8.02007 2.93905 9.12669ZM9.79711 18.1455C10.0849 17.7573 10.6329 17.6759 11.0211 17.9636C11.8708 18.5935 12.8965 18.9582 14 18.9582C15.1036 18.9582 16.1293 18.5935 16.979 17.9636C17.3672 17.6759 17.9152 17.7573 18.203 18.1455C18.4907 18.5337 18.4093 19.0817 18.0212 19.3695C16.8866 20.2104 15.4992 20.7082 14 20.7082C12.501 20.7082 11.1135 20.2104 9.979 19.3695C9.59078 19.0817 9.50934 18.5337 9.79711 18.1455Z" fill="#007AFF"/>
</svg>
