<svg width="49" height="48" viewBox="0 0 49 48" fill="none" xmlns="http://www.w3.org/2000/svg">
<g clip-path="url(#clip0_12023_1370)">
<path d="M11 3H3.5V24H11V3Z" fill="#9A9A9A" fill-opacity="0.5"/>
<path d="M35 3H14V25.2041L18.5633 32.0493L19.8312 40.924C19.9361 41.6377 20.2934 42.2901 20.8383 42.7628C21.3832 43.2354 22.0795 43.497 22.8008 43.5H23C24.1931 43.4987 25.3369 43.0242 26.1805 42.1805C27.0242 41.3369 27.4987 40.1931 27.5 39V30H39.5C41.0907 29.9982 42.6158 29.3655 43.7407 28.2407C44.8655 27.1158 45.4982 25.5907 45.5 24V13.5C45.4969 10.7162 44.3897 8.04726 42.4212 6.0788C40.4527 4.11034 37.7838 3.0031 35 3Z" fill="#9A9A9A" fill-opacity="0.5"/>
</g>
<defs>
<clipPath id="clip0_12023_1370">
<rect width="48" height="48" fill="white" transform="translate(0.5)"/>
</clipPath>
</defs>
</svg>
