<svg width="49" height="48" viewBox="0 0 49 48" fill="none" xmlns="http://www.w3.org/2000/svg">
<g clip-path="url(#clip0_12023_1374)">
<path d="M11 24H3.5V45H11V24Z" fill="#9A9A9A" fill-opacity="0.5"/>
<path d="M35 45H14V22.7959L18.5633 15.9507L19.8312 7.07595C19.9361 6.36229 20.2934 5.7099 20.8383 5.23724C21.3832 4.76458 22.0795 4.503 22.8008 4.5H23C24.1931 4.50131 25.3369 4.97584 26.1805 5.81947C27.0242 6.6631 27.4987 7.80693 27.5 9V18H39.5C41.0907 18.0018 42.6158 18.6345 43.7407 19.7593C44.8655 20.8842 45.4982 22.4093 45.5 24V34.5C45.4969 37.2838 44.3897 39.9527 42.4212 41.9212C40.4527 43.8897 37.7838 44.9969 35 45Z" fill="#9A9A9A" fill-opacity="0.5"/>
</g>
<defs>
<clipPath id="clip0_12023_1374">
<rect width="48" height="48" fill="white" transform="translate(0.5)"/>
</clipPath>
</defs>
</svg>
