<svg width="32" height="32" viewBox="0 0 32 32" fill="none" xmlns="http://www.w3.org/2000/svg">
<path d="M0 8C0 3.58172 3.58172 0 8 0H24C28.4183 0 32 3.58172 32 8V24C32 28.4183 28.4183 32 24 32H8C3.58172 32 0 28.4183 0 24V8Z" fill="white"/>
<path d="M11 12H15" stroke="#010101" stroke-linecap="round" stroke-linejoin="round"/>
<path d="M25.8333 13H23.2308C21.4465 13 20 14.3431 20 16C20 17.6569 21.4465 19 23.2308 19H25.8333C25.9167 19 25.9583 19 25.9935 18.9979C26.5328 18.965 26.9623 18.5662 26.9977 18.0654C27 18.0327 27 17.994 27 17.9167V14.0833C27 14.006 27 13.9673 26.9977 13.9346C26.9623 13.4338 26.5328 13.035 25.9935 13.0021C25.9583 13 25.9167 13 25.8333 13Z" stroke="#010101"/>
<path d="M25.965 13C25.8873 11.1277 25.6366 9.97975 24.8284 9.17157C23.6569 8 21.7712 8 18 8H15C11.2288 8 9.34315 8 8.17157 9.17157C7 10.3431 7 12.2288 7 16C7 19.7712 7 21.6569 8.17157 22.8284C9.34315 24 11.2288 24 15 24H18C21.7712 24 23.6569 24 24.8284 22.8284C25.6366 22.0203 25.8873 20.8723 25.965 19" stroke="#010101"/>
<path d="M22.9912 16H23.0002" stroke="#010101" stroke-linecap="round" stroke-linejoin="round"/>
<g clip-path="url(#clip0_12022_850)">
<circle cx="9.5" cy="22.5" r="3.375" fill="white"/>
<path fill-rule="evenodd" clip-rule="evenodd" d="M13.25 22.5C13.25 24.571 11.571 26.25 9.5 26.25C7.42893 26.25 5.75 24.571 5.75 22.5C5.75 20.4289 7.42893 18.75 9.5 18.75C11.571 18.75 13.25 20.4289 13.25 22.5ZM11.0114 21.3636C11.1212 21.4735 11.1212 21.6515 11.0114 21.7614L9.13636 23.6364C9.02652 23.7462 8.84847 23.7462 8.73863 23.6364L7.98863 22.8864C7.87879 22.7765 7.87879 22.5985 7.98863 22.4886C8.09846 22.3788 8.27654 22.3788 8.38637 22.4886L8.9375 23.0397L9.77555 22.2017L10.6136 21.3636C10.7235 21.2538 10.9015 21.2538 11.0114 21.3636Z" fill="#36B181"/>
</g>
<defs>
<clipPath id="clip0_12022_850">
<rect width="9" height="9" fill="white" transform="translate(5 18)"/>
</clipPath>
</defs>
</svg>
