<svg width="30" height="30" viewBox="0 0 30 30" fill="none" xmlns="http://www.w3.org/2000/svg">
<g clip-path="url(#clip0_12106_1604)">
<path d="M0 5C0 2.23858 2.83701 0 6.33663 0H23.6634C27.163 0 30 2.23858 30 5V25C30 27.7614 27.163 30 23.6634 30H6.33663C2.83701 30 0 27.7614 0 25V5Z" fill="#4891F2"/>
<path fill-rule="evenodd" clip-rule="evenodd" d="M16.5 11.25H21.75C22.9927 11.25 24 12.2574 24 13.5V21.75C24 22.9927 22.9927 24 21.75 24H15.75C14.5073 24 13.5 22.9927 13.5 21.75V18.75H8.25C7.00736 18.75 6 17.7427 6 16.5V8.25C6 7.00736 7.00736 6 8.25 6H14.25C15.4927 6 16.5 7.00736 16.5 8.25V11.25ZM16.5 12.75V14.25H18C18 13.8358 18.3358 13.5 18.75 13.5C19.1642 13.5 19.5 13.8358 19.5 14.25H20.2346C20.2443 14.2498 20.254 14.2498 20.2639 14.25H21C21.4142 14.25 21.75 14.5858 21.75 15C21.75 15.4142 21.4142 15.75 21 15.75H20.8489C20.5681 16.8568 20.1398 17.8693 19.5657 18.785C20.0912 19.3735 20.7074 19.9035 21.4161 20.3759C21.7607 20.6057 21.8539 21.0714 21.6241 21.416C21.3943 21.7607 20.9287 21.8538 20.5841 21.6241C19.8624 21.143 19.2201 20.6059 18.658 20.0135C18.1598 20.5907 17.5904 21.1198 16.95 21.6C16.6187 21.8485 16.1486 21.7814 15.9 21.45C15.6515 21.1187 15.7186 20.6486 16.05 20.4C16.6783 19.9288 17.2256 19.4059 17.6928 18.8299C17.4177 18.4346 17.1714 18.0197 16.9543 17.5854C16.769 17.2149 16.9192 16.7645 17.2897 16.5792C17.6602 16.394 18.1107 16.5441 18.2959 16.9146C18.3899 17.1026 18.4903 17.2864 18.5971 17.4658C18.8826 16.9302 19.1147 16.3585 19.294 15.75H16.5V16.5C16.5 17.4797 15.8739 18.3131 15 18.622V21.75C15 22.1642 15.3358 22.5 15.75 22.5H21.75C22.1642 22.5 22.5 22.1642 22.5 21.75V13.5C22.5 13.0858 22.1642 12.75 21.75 12.75H16.5ZM10.6656 13.125L11.25 11.3717L11.8344 13.125H10.6656ZM10.1656 14.625H12.3344L12.7885 15.9872C12.9195 16.3801 13.3442 16.5925 13.7372 16.4615C14.1301 16.3305 14.3425 15.9058 14.2115 15.5128L11.9615 8.76283C11.7336 8.07906 10.7664 8.07906 10.5385 8.76283L8.28849 15.5128C8.1575 15.9058 8.36987 16.3305 8.76283 16.4615C9.15579 16.5925 9.58053 16.3801 9.71151 15.9872L10.1656 14.625Z" fill="white"/>
</g>
<defs>
<clipPath id="clip0_12106_1604">
<rect width="30" height="30" fill="white"/>
</clipPath>
</defs>
</svg>
