<svg width="30" height="30" viewBox="0 0 30 30" fill="none" xmlns="http://www.w3.org/2000/svg">
<g clip-path="url(#clip0_12106_1896)">
<path d="M0 5C0 2.23858 2.83701 0 6.33663 0H23.6634C27.163 0 30 2.23858 30 5V25C30 27.7614 27.163 30 23.6634 30H6.33663C2.83701 30 0 27.7614 0 25V5Z" fill="#EB4D3D"/>
<path d="M8.79292 9.12292H21.1679C21.3125 9.12286 21.4569 9.13203 21.6003 9.15038C21.5517 8.80921 21.4345 8.48141 21.2558 8.18675C21.0771 7.89209 20.8405 7.63668 20.5604 7.4359C20.2803 7.23513 19.9625 7.09316 19.626 7.01855C19.2896 6.94393 18.9415 6.93823 18.6028 7.00177L8.42554 8.7393H8.41394C7.77511 8.86146 7.20701 9.2229 6.82568 9.7498C7.40019 9.34116 8.08791 9.12201 8.79292 9.12292Z" fill="white"/>
<path d="M21.1681 10.05H8.79312C8.13692 10.0508 7.50781 10.3118 7.04382 10.7758C6.57982 11.2397 6.31883 11.8689 6.31812 12.525V19.95C6.31883 20.6062 6.57982 21.2353 7.04382 21.6993C7.50781 22.1633 8.13692 22.4243 8.79312 22.425H21.1681C21.8243 22.4243 22.4534 22.1633 22.9174 21.6993C23.3814 21.2353 23.6424 20.6062 23.6431 19.95V12.525C23.6424 11.8689 23.3814 11.2397 22.9174 10.7758C22.4534 10.3118 21.8243 10.0508 21.1681 10.05ZM19.3312 17.475C19.0864 17.475 18.8472 17.4025 18.6437 17.2665C18.4402 17.1305 18.2816 16.9372 18.1879 16.7111C18.0942 16.485 18.0697 16.2362 18.1175 15.9961C18.1652 15.7561 18.2831 15.5356 18.4562 15.3625C18.6292 15.1894 18.8497 15.0716 19.0898 15.0238C19.3298 14.9761 19.5786 15.0006 19.8048 15.0942C20.0309 15.1879 20.2242 15.3465 20.3601 15.55C20.4961 15.7535 20.5687 15.9928 20.5687 16.2375C20.5687 16.5658 20.4383 16.8805 20.2062 17.1126C19.9742 17.3447 19.6594 17.475 19.3312 17.475Z" fill="white"/>
<path d="M6.3374 15.1354V11.2876C6.3374 10.4496 6.80146 9.04463 8.41215 8.74028C9.7792 8.48389 11.1327 8.48389 11.1327 8.48389C11.1327 8.48389 12.0222 9.10264 11.2874 9.10264C10.5526 9.10264 10.572 10.0501 11.2874 10.0501C12.0028 10.0501 11.2874 10.9589 11.2874 10.9589L8.40635 14.2267L6.3374 15.1354Z" fill="white"/>
</g>
<defs>
<clipPath id="clip0_12106_1896">
<rect width="30" height="30" fill="white"/>
</clipPath>
</defs>
</svg>
