<svg width="30" height="30" viewBox="0 0 30 30" fill="none" xmlns="http://www.w3.org/2000/svg">
<g clip-path="url(#clip0_12106_1638)">
<path d="M0 5C0 2.23858 2.83701 0 6.33663 0H23.6634C27.163 0 30 2.23858 30 5V25C30 27.7614 27.163 30 23.6634 30H6.33663C2.83701 30 0 27.7614 0 25V5Z" fill="#8E8E92"/>
<g clip-path="url(#clip1_12106_1638)">
<path d="M15 6C10.0331 6 6 10.0331 6 15C6 19.9669 10.0331 24 15 24C19.9669 24 24 19.9669 24 15C24 10.0331 19.9669 6 15 6ZM15 8.25C18.7586 8.25 21.75 11.2414 21.75 15C21.75 18.7586 18.7586 21.75 15 21.75C11.2414 21.75 8.25 18.7586 8.25 15C8.25 11.2414 11.2414 8.25 15 8.25Z" fill="white"/>
<path d="M14.2552 11.625C13.5582 11.6268 12.8902 11.9045 12.3974 12.3974C11.9045 12.8902 11.6268 13.5582 11.625 14.2552V15.7447C11.6268 16.4418 11.9045 17.1098 12.3974 17.6026C12.8902 18.0955 13.5582 18.3732 14.2552 18.375H15.7447C16.4418 18.3732 17.1098 18.0955 17.6026 17.6026C18.0955 17.1098 18.3732 16.4418 18.375 15.7447V14.2552C18.3732 13.5582 18.0955 12.8902 17.6026 12.3974C17.1098 11.9045 16.4418 11.6268 15.7447 11.625H14.2552ZM14.2552 12.75H15.7447C16.5885 12.75 17.25 13.4115 17.25 14.2552V15.7447C17.25 16.5885 16.5885 17.25 15.7447 17.25H14.2552C13.4115 17.25 12.75 16.5885 12.75 15.7447V14.2552C12.75 13.4115 13.4115 12.75 14.2552 12.75Z" fill="white"/>
<path d="M11.3088 7.61782C10.4719 7.95437 9.71261 8.45852 9.07766 9.09927C8.44271 9.74003 7.9455 10.5039 7.61658 11.3438L11.8353 13.4532C12.1188 12.7332 12.6712 12.1369 13.3822 11.8354L11.3088 7.61782ZM18.6911 7.61782L16.6166 11.8366C16.969 11.9898 17.2873 12.2117 17.5531 12.4893C17.8189 12.7668 18.0267 13.0945 18.1646 13.4532L22.3833 11.3438C22.0545 10.5037 21.5574 9.7396 20.9224 9.09865C20.2875 8.45769 19.5281 7.9545 18.6911 7.61782ZM11.8353 16.6178L7.61658 18.7261C7.95469 19.5524 8.45592 20.302 9.09032 20.9303C9.72471 21.5585 10.4792 22.0523 11.3088 22.3823L13.4182 18.1636C12.7079 17.8765 12.1392 17.3211 11.8353 16.6178ZM18.1635 16.6178C17.8598 17.3209 17.2916 17.8762 16.5817 18.1636L18.6911 22.3823C19.5204 22.0522 20.2748 21.5583 20.909 20.9301C21.5432 20.3019 22.0442 19.5523 22.3822 18.7261L18.1635 16.6178Z" fill="white"/>
</g>
</g>
<defs>
<clipPath id="clip0_12106_1638">
<rect width="30" height="30" rx="6" fill="white"/>
</clipPath>
<clipPath id="clip1_12106_1638">
<rect width="18" height="18" fill="white" transform="translate(6 6)"/>
</clipPath>
</defs>
</svg>
