<svg width="30" height="30" viewBox="0 0 30 30" fill="none" xmlns="http://www.w3.org/2000/svg">
<rect x="1" y="5" width="28" height="20" rx="2" fill="white"/>
<mask id="mask0_12112_1658" style="mask-type:luminance" maskUnits="userSpaceOnUse" x="1" y="5" width="28" height="20">
<rect x="1" y="5" width="28" height="20" rx="2" fill="white"/>
</mask>
<g mask="url(#mask0_12112_1658)">
<path fill-rule="evenodd" clip-rule="evenodd" d="M29 5H1V6.33333H29V5ZM29 7.66667H1V9H29V7.66667ZM1 10.3333H29V11.6667H1V10.3333ZM29 13H1V14.3333H29V13ZM1 15.6667H29V17H1V15.6667ZM29 18.3333H1V19.6667H29V18.3333ZM1 21H29V22.3333H1V21ZM29 23.6667H1V25H29V23.6667Z" fill="#D02F44"/>
<rect x="1" y="5" width="12" height="9.33333" fill="#46467F"/>
<g filter="url(#filter0_d_12112_1658)">
<path fill-rule="evenodd" clip-rule="evenodd" d="M3.66659 6.99992C3.66659 7.36811 3.36811 7.66659 2.99992 7.66659C2.63173 7.66659 2.33325 7.36811 2.33325 6.99992C2.33325 6.63173 2.63173 6.33325 2.99992 6.33325C3.36811 6.33325 3.66659 6.63173 3.66659 6.99992ZM6.33325 6.99992C6.33325 7.36811 6.03478 7.66659 5.66659 7.66659C5.2984 7.66659 4.99992 7.36811 4.99992 6.99992C4.99992 6.63173 5.2984 6.33325 5.66659 6.33325C6.03478 6.33325 6.33325 6.63173 6.33325 6.99992ZM8.33325 7.66659C8.70144 7.66659 8.99992 7.36811 8.99992 6.99992C8.99992 6.63173 8.70144 6.33325 8.33325 6.33325C7.96506 6.33325 7.66659 6.63173 7.66659 6.99992C7.66659 7.36811 7.96506 7.66659 8.33325 7.66659ZM11.6666 6.99992C11.6666 7.36811 11.3681 7.66659 10.9999 7.66659C10.6317 7.66659 10.3333 7.36811 10.3333 6.99992C10.3333 6.63173 10.6317 6.33325 10.9999 6.33325C11.3681 6.33325 11.6666 6.63173 11.6666 6.99992ZM4.33325 8.99992C4.70144 8.99992 4.99992 8.70144 4.99992 8.33325C4.99992 7.96506 4.70144 7.66659 4.33325 7.66659C3.96506 7.66659 3.66659 7.96506 3.66659 8.33325C3.66659 8.70144 3.96506 8.99992 4.33325 8.99992ZM7.66659 8.33325C7.66659 8.70144 7.36811 8.99992 6.99992 8.99992C6.63173 8.99992 6.33325 8.70144 6.33325 8.33325C6.33325 7.96506 6.63173 7.66659 6.99992 7.66659C7.36811 7.66659 7.66659 7.96506 7.66659 8.33325ZM9.66658 8.99992C10.0348 8.99992 10.3333 8.70144 10.3333 8.33325C10.3333 7.96506 10.0348 7.66659 9.66658 7.66659C9.2984 7.66659 8.99992 7.96506 8.99992 8.33325C8.99992 8.70144 9.2984 8.99992 9.66658 8.99992ZM11.6666 9.66659C11.6666 10.0348 11.3681 10.3333 10.9999 10.3333C10.6317 10.3333 10.3333 10.0348 10.3333 9.66659C10.3333 9.2984 10.6317 8.99992 10.9999 8.99992C11.3681 8.99992 11.6666 9.2984 11.6666 9.66659ZM8.33325 10.3333C8.70144 10.3333 8.99992 10.0348 8.99992 9.66659C8.99992 9.2984 8.70144 8.99992 8.33325 8.99992C7.96506 8.99992 7.66659 9.2984 7.66659 9.66659C7.66659 10.0348 7.96506 10.3333 8.33325 10.3333ZM6.33325 9.66659C6.33325 10.0348 6.03478 10.3333 5.66659 10.3333C5.2984 10.3333 4.99992 10.0348 4.99992 9.66659C4.99992 9.2984 5.2984 8.99992 5.66659 8.99992C6.03478 8.99992 6.33325 9.2984 6.33325 9.66659ZM2.99992 10.3333C3.36811 10.3333 3.66659 10.0348 3.66659 9.66659C3.66659 9.2984 3.36811 8.99992 2.99992 8.99992C2.63173 8.99992 2.33325 9.2984 2.33325 9.66659C2.33325 10.0348 2.63173 10.3333 2.99992 10.3333ZM4.99992 10.9999C4.99992 11.3681 4.70144 11.6666 4.33325 11.6666C3.96506 11.6666 3.66659 11.3681 3.66659 10.9999C3.66659 10.6317 3.96506 10.3333 4.33325 10.3333C4.70144 10.3333 4.99992 10.6317 4.99992 10.9999ZM6.99992 11.6666C7.36811 11.6666 7.66659 11.3681 7.66659 10.9999C7.66659 10.6317 7.36811 10.3333 6.99992 10.3333C6.63173 10.3333 6.33325 10.6317 6.33325 10.9999C6.33325 11.3681 6.63173 11.6666 6.99992 11.6666ZM10.3333 10.9999C10.3333 11.3681 10.0348 11.6666 9.66658 11.6666C9.2984 11.6666 8.99992 11.3681 8.99992 10.9999C8.99992 10.6317 9.2984 10.3333 9.66658 10.3333C10.0348 10.3333 10.3333 10.6317 10.3333 10.9999ZM10.9999 12.9999C11.3681 12.9999 11.6666 12.7014 11.6666 12.3333C11.6666 11.9651 11.3681 11.6666 10.9999 11.6666C10.6317 11.6666 10.3333 11.9651 10.3333 12.3333C10.3333 12.7014 10.6317 12.9999 10.9999 12.9999ZM8.99992 12.3333C8.99992 12.7014 8.70144 12.9999 8.33325 12.9999C7.96506 12.9999 7.66659 12.7014 7.66659 12.3333C7.66659 11.9651 7.96506 11.6666 8.33325 11.6666C8.70144 11.6666 8.99992 11.9651 8.99992 12.3333ZM5.66659 12.9999C6.03478 12.9999 6.33325 12.7014 6.33325 12.3333C6.33325 11.9651 6.03478 11.6666 5.66659 11.6666C5.2984 11.6666 4.99992 11.9651 4.99992 12.3333C4.99992 12.7014 5.2984 12.9999 5.66659 12.9999ZM3.66659 12.3333C3.66659 12.7014 3.36811 12.9999 2.99992 12.9999C2.63173 12.9999 2.33325 12.7014 2.33325 12.3333C2.33325 11.9651 2.63173 11.6666 2.99992 11.6666C3.36811 11.6666 3.66659 11.9651 3.66659 12.3333Z" fill="url(#paint0_linear_12112_1658)"/>
</g>
</g>
<defs>
<filter id="filter0_d_12112_1658" x="2.33325" y="6.33325" width="9.33325" height="7.66675" filterUnits="userSpaceOnUse" color-interpolation-filters="sRGB">
<feFlood flood-opacity="0" result="BackgroundImageFix"/>
<feColorMatrix in="SourceAlpha" type="matrix" values="0 0 0 0 0 0 0 0 0 0 0 0 0 0 0 0 0 0 127 0" result="hardAlpha"/>
<feOffset dy="1"/>
<feColorMatrix type="matrix" values="0 0 0 0 0 0 0 0 0 0 0 0 0 0 0 0 0 0 0.06 0"/>
<feBlend mode="normal" in2="BackgroundImageFix" result="effect1_dropShadow_12112_1658"/>
<feBlend mode="normal" in="SourceGraphic" in2="effect1_dropShadow_12112_1658" result="shape"/>
</filter>
<linearGradient id="paint0_linear_12112_1658" x1="2.33325" y1="6.33325" x2="2.33325" y2="12.9999" gradientUnits="userSpaceOnUse">
<stop stop-color="white"/>
<stop offset="1" stop-color="#F0F0F0"/>
</linearGradient>
</defs>
</svg>
